<svg width="1592" height="621" viewBox="0 0 1592 621" fill="none" xmlns="http://www.w3.org/2000/svg">
<path d="M26.0419 545.019C26.0419 569.472 38.7452 583.129 61.6112 583.129C84.4772 583.129 97.1806 569.472 97.1806 545.019V508.179H133.703C189.597 508.179 233.424 491.029 233.424 429.418C233.424 367.489 189.597 350.34 133.703 350.34H67.6453C39.3804 350.34 26.0419 363.361 26.0419 393.849V545.019ZM97.1806 452.919V405.599H134.02C151.805 405.599 162.285 414.492 162.285 429.736C162.285 445.297 149.582 452.919 137.514 452.919H97.1806Z" fill="#409371"/>
<path d="M264.331 550.735C264.331 572.966 277.987 583.129 297.042 583.129C316.097 583.129 329.753 572.966 329.753 550.735V441.169C329.753 418.938 316.097 408.775 297.042 408.775C277.987 408.775 264.331 418.938 264.331 441.169V550.735ZM266.237 365.901C266.237 383.051 279.893 396.707 297.042 396.707C314.192 396.707 327.848 383.051 327.848 365.901C327.848 348.752 314.192 335.096 297.042 335.096C279.893 335.096 266.237 348.752 266.237 365.901ZM582.059 550.735C582.059 572.966 595.715 583.129 614.77 583.129C633.825 583.129 647.481 572.966 647.481 550.735V472.927C647.481 436.723 629.061 408.775 583.964 408.775C560.781 408.775 542.678 417.668 528.705 440.851C522.988 418.303 500.757 408.775 479.479 408.775C454.39 408.775 436.288 419.891 425.49 439.581H424.855C422.632 419.891 415.01 408.775 395.637 408.775C374.041 408.775 364.196 419.573 364.196 439.898V550.735C364.196 572.966 377.852 583.129 396.907 583.129C415.963 583.129 429.619 572.966 429.619 550.735V490.077C429.619 471.657 440.416 460.224 451.532 460.224C466.141 460.224 473.128 467.528 473.128 488.171V550.735C473.128 572.966 486.784 583.129 505.839 583.129C524.894 583.129 538.55 572.966 538.55 550.735V490.077C538.55 471.657 549.348 460.224 560.463 460.224C575.072 460.224 582.059 467.528 582.059 488.171V550.735Z" fill="black"/>
<path d="M786.042 230.019C786.042 254.472 798.745 268.129 821.611 268.129C844.477 268.129 857.181 254.472 857.181 230.019V193.179H893.703C949.597 193.179 993.424 176.029 993.424 114.418C993.424 52.4893 949.597 35.3398 893.703 35.3398H827.645C799.38 35.3398 786.042 48.3608 786.042 78.8488V230.019ZM857.181 137.919V90.5994H894.02C911.805 90.5994 922.285 99.4917 922.285 114.736C922.285 130.297 909.582 137.919 897.514 137.919H857.181ZM1133.4 208.105C1133.4 220.491 1120.69 231.924 1102.27 231.924C1091.79 231.924 1082.27 225.572 1082.27 215.727C1082.27 208.74 1085.76 204.294 1091.16 202.071C1102.91 197.307 1124.19 199.213 1133.4 189.368V208.105ZM1196.91 142.683C1196.91 101.715 1143.56 93.7752 1108.94 93.7752C1063.53 93.7752 1029.23 109.654 1029.23 134.108C1029.23 147.129 1036.85 154.434 1049.87 154.434C1072.1 154.434 1078.77 131.885 1107.04 131.885C1124.5 131.885 1133.4 137.602 1133.4 148.082C1133.4 159.197 1123.55 162.691 1099.1 164.279C1033.99 168.407 1014.94 189.05 1014.94 216.68C1014.94 253.202 1040.66 268.129 1076.87 268.129C1099.41 268.129 1122.6 260.824 1135.3 241.769C1137.52 256.696 1145.78 268.129 1168.33 268.129C1183.89 268.129 1198.82 261.142 1198.82 244.945C1198.82 237.005 1196.91 226.843 1196.91 215.41V142.683Z" fill="black"/>
<path d="M1448.13 235.735C1448.13 257.966 1461.78 268.129 1480.84 268.129C1499.89 268.129 1513.55 257.966 1513.55 235.735V157.927C1513.55 121.723 1495.13 93.7752 1450.03 93.7752C1426.85 93.7752 1408.75 102.668 1394.77 125.851C1389.06 103.303 1366.83 93.7752 1345.55 93.7752C1320.46 93.7752 1302.36 104.891 1291.56 124.581H1290.92C1288.7 104.891 1281.08 93.7752 1261.71 93.7752C1240.11 93.7752 1230.26 104.573 1230.26 124.898V235.735C1230.26 257.966 1243.92 268.129 1262.98 268.129C1282.03 268.129 1295.69 257.966 1295.69 235.735V175.077C1295.69 156.657 1306.48 145.224 1317.6 145.224C1332.21 145.224 1339.2 152.528 1339.2 173.171V235.735C1339.2 257.966 1352.85 268.129 1371.91 268.129C1390.96 268.129 1404.62 257.966 1404.62 235.735V175.077C1404.62 156.657 1415.42 145.224 1426.53 145.224C1441.14 145.224 1448.13 152.528 1448.13 173.171V235.735Z" fill="#409371"/>
<path d="M382.646 258.591C373.329 281.2 379.871 298.666 401.012 307.378C422.153 316.091 439.102 308.305 448.419 285.695L462.455 251.634L496.222 265.549C547.901 286.846 594.956 287.688 618.43 230.724C642.026 173.466 608.039 140.912 556.36 119.616L495.285 94.4476C469.153 83.6784 451.859 90.6351 440.243 118.824L382.646 258.591ZM483.509 200.543L501.539 156.792L535.6 170.828C552.043 177.604 558.345 189.819 552.536 203.913C546.607 218.301 531.958 220.508 520.8 215.91L483.509 200.543ZM997.774 518.263C989.304 538.817 998.058 553.416 1015.68 560.676C1033.29 567.936 1049.79 563.743 1058.26 543.189L1087.91 471.25C1101.7 437.776 1095.32 404.919 1053.62 387.736C1032.19 378.903 1012.06 380.228 990.311 396.339C993.617 373.313 976.693 356.034 957.02 347.927C933.823 338.368 912.851 341.748 895.366 355.839L894.779 355.597C900.225 336.545 897.413 323.364 879.502 315.982C859.535 307.754 846.319 313.987 838.575 332.779L796.345 435.255C787.875 455.809 796.629 470.409 814.247 477.669C831.864 484.929 848.362 480.736 856.833 460.182L879.944 404.099C886.962 387.068 901.301 380.612 911.578 384.847C925.085 390.413 928.762 399.828 920.897 418.914L897.06 476.759C888.59 497.313 897.344 511.912 914.961 519.172C932.579 526.432 949.077 522.239 957.547 501.685L980.659 445.602C987.677 428.572 1002.02 422.115 1012.29 426.35C1025.8 431.916 1029.48 441.332 1021.61 460.418L997.774 518.263Z" fill="black"/>
<path d="M724.624 350.054C717.122 368.259 704.941 376.979 689.966 370.808C674.991 364.637 671.401 352.509 678.299 335.773L702.136 277.928C710.606 257.374 701.852 242.774 684.234 235.514C666.617 228.254 650.118 232.447 641.648 253.001L612.003 324.94C598.209 358.414 604.591 391.271 646.58 408.575C669.777 418.134 690.749 414.754 708.234 400.663L708.821 400.905C703.375 419.957 706.187 433.138 724.098 440.519C744.065 448.747 757.281 442.515 765.025 423.723L807.255 321.246C815.725 300.692 806.971 286.093 789.353 278.833C771.736 271.573 755.238 275.766 746.767 296.32L724.624 350.054Z" fill="#409371"/>
</svg>
